<?xml version="1.0" encoding="UTF-8"?>
<svg xmlns="http://www.w3.org/2000/svg" xmlns:xlink="http://www.w3.org/1999/xlink" width="45pt" height="45pt" viewBox="0 0 45 45" version="1.1">
<g id="surface1">
<path style=" stroke:none;fill-rule:nonzero;fill:rgb(0%,0%,0%);fill-opacity:1;" d="M 36.265625 30.328125 L 29.703125 29.011719 C 29.007812 28.871094 28.5 28.253906 28.5 27.542969 L 28.5 25.828125 C 35.054688 25.207031 36 23.863281 36 22.5 C 36 18.464844 33.316406 9.097656 32.875 7.570312 C 32.820312 5.21875 32.386719 3.890625 31.3125 2.734375 C 30.550781 1.90625 29.429688 1.714844 28.527344 1.5625 C 28.171875 1.5 27.683594 1.417969 27.503906 1.320312 C 25.90625 0.453125 24.324219 0.0351562 22.4375 0 C 18.484375 0.160156 13.628906 2.675781 11.96875 7.273438 C 11.847656 7.699219 9 17.847656 9 22.5 C 9 24.441406 11.195312 25.464844 16.5 25.933594 L 16.5 27.542969 C 16.5 28.253906 15.992188 28.871094 15.292969 29.011719 L 8.738281 30.328125 C 4.546875 31.152344 1.5 34.863281 1.5 39.148438 L 1.5 42 C 1.5 43.652344 2.847656 45 4.5 45 L 40.5 45 C 42.152344 45 43.5 43.652344 43.5 42 L 43.5 39.148438 C 43.5 34.863281 40.453125 31.152344 36.265625 30.328125 Z M 36.265625 30.328125 "/>
</g>
</svg>
