<?xml version="1.0" encoding="UTF-8"?>
<svg xmlns="http://www.w3.org/2000/svg" xmlns:xlink="http://www.w3.org/1999/xlink" width="45pt" height="45pt" viewBox="0 0 45 45" version="1.1">
<g id="surface1">
<path style=" stroke:none;fill-rule:nonzero;fill:rgb(27.058824%,35.294118%,39.215686%);fill-opacity:1;" d="M 44.972656 43.835938 L 43.847656 39.335938 C 43.3125 37.152344 41.695312 35.398438 39.5625 34.6875 L 31.3125 31.9375 C 29.300781 31.101562 28.378906 27.859375 28.179688 26.628906 C 29.714844 25.355469 30.699219 23.542969 30.9375 21.5625 C 30.902344 21.222656 30.984375 20.882812 31.164062 20.597656 C 31.457031 20.523438 31.695312 20.3125 31.808594 20.035156 C 32.347656 18.726562 32.6875 17.347656 32.8125 15.9375 C 32.8125 15.859375 32.804688 15.785156 32.785156 15.710938 C 32.648438 15.164062 32.328125 14.679688 31.875 14.34375 L 31.875 9.375 C 31.875 6.355469 30.953125 5.113281 29.980469 4.398438 C 29.796875 2.941406 28.238281 0 22.5 0 C 17.410156 0.203125 13.328125 4.285156 13.125 9.375 L 13.125 14.34375 C 12.671875 14.679688 12.347656 15.164062 12.214844 15.710938 C 12.195312 15.785156 12.1875 15.859375 12.1875 15.9375 C 12.3125 17.347656 12.652344 18.730469 13.191406 20.035156 C 13.273438 20.300781 13.484375 20.503906 13.753906 20.574219 C 13.859375 20.628906 14.054688 20.898438 14.054688 21.5625 C 14.292969 23.546875 15.285156 25.367188 16.828125 26.640625 C 16.632812 27.867188 15.714844 31.105469 13.761719 31.925781 L 5.4375 34.6875 C 3.304688 35.398438 1.6875 37.152344 1.15625 39.332031 L 0.03125 43.832031 C -0.0976562 44.332031 0.207031 44.84375 0.707031 44.972656 C 0.78125 44.992188 0.859375 45 0.9375 45 L 44.0625 45 C 44.578125 45 45 44.582031 45 44.0625 C 45 43.984375 44.988281 43.910156 44.972656 43.835938 Z M 44.972656 43.835938 "/>
</g>
</svg>
