<?xml version="1.0" encoding="UTF-8"?>
<svg xmlns="http://www.w3.org/2000/svg" xmlns:xlink="http://www.w3.org/1999/xlink" width="45pt" height="45pt" viewBox="0 0 45 45" version="1.1">
<g id="surface1">
<path style=" stroke:none;fill-rule:nonzero;fill:rgb(0%,0%,0%);fill-opacity:1;" d="M 38.410156 29.089844 C 35.960938 26.640625 33.042969 24.824219 29.859375 23.726562 C 33.269531 21.378906 35.507812 17.449219 35.507812 13.007812 C 35.507812 5.835938 29.671875 0 22.5 0 C 15.328125 0 9.492188 5.835938 9.492188 13.007812 C 9.492188 17.449219 11.730469 21.378906 15.140625 23.726562 C 11.957031 24.824219 9.039062 26.640625 6.589844 29.089844 C 2.339844 33.339844 0 38.988281 0 45 L 3.515625 45 C 3.515625 34.53125 12.03125 26.015625 22.5 26.015625 C 32.96875 26.015625 41.484375 34.53125 41.484375 45 L 45 45 C 45 38.988281 42.660156 33.339844 38.410156 29.089844 Z M 22.5 22.5 C 17.265625 22.5 13.007812 18.242188 13.007812 13.007812 C 13.007812 7.773438 17.265625 3.515625 22.5 3.515625 C 27.734375 3.515625 31.992188 7.773438 31.992188 13.007812 C 31.992188 18.242188 27.734375 22.5 22.5 22.5 Z M 22.5 22.5 "/>
</g>
</svg>
